<mxfile host="app.diagrams.net" agent="Mozilla/5.0 (Windows NT 10.0; Win64; x64) AppleWebKit/537.36 (KHTML, like Gecko) Chrome/135.0.0.0 Safari/537.36" version="26.2.14">
  <diagram id="C5RBs43oDa-KdzZeNtuy" name="Page-1">
    <mxGraphModel dx="1975" dy="1038" grid="0" gridSize="10" guides="1" tooltips="1" connect="1" arrows="1" fold="1" page="1" pageScale="1" pageWidth="827" pageHeight="1169" math="0" shadow="0">
      <root>
        <mxCell id="WIyWlLk6GJQsqaUBKTNV-0" />
        <mxCell id="WIyWlLk6GJQsqaUBKTNV-1" parent="WIyWlLk6GJQsqaUBKTNV-0" />
        <mxCell id="3QtL0Roowi1bdVcyiD9X-15" value="&amp;lt;&amp;lt;Controller&amp;gt;&amp;gt;&lt;br&gt;&lt;b&gt;PersonalisationController&lt;/b&gt;&lt;div&gt;&lt;br/&gt;&lt;/div&gt;" style="swimlane;fontStyle=0;align=center;verticalAlign=top;childLayout=stackLayout;horizontal=1;startSize=55;horizontalStack=0;resizeParent=1;resizeParentMax=0;resizeLast=0;collapsible=0;marginBottom=0;html=1;whiteSpace=wrap;" vertex="1" parent="WIyWlLk6GJQsqaUBKTNV-1">
          <mxGeometry x="1113" y="127" width="207" height="147" as="geometry" />
        </mxCell>
        <mxCell id="3QtL0Roowi1bdVcyiD9X-20" value="" style="line;strokeWidth=1;fillColor=none;align=left;verticalAlign=middle;spacingTop=-1;spacingLeft=3;spacingRight=3;rotatable=0;labelPosition=right;points=[];portConstraint=eastwest;" vertex="1" parent="3QtL0Roowi1bdVcyiD9X-15">
          <mxGeometry y="55" width="207" height="8" as="geometry" />
        </mxCell>
        <mxCell id="3QtL0Roowi1bdVcyiD9X-22" value="+createPersonalisedProfile(): void&lt;div&gt;+deletePesonalisedProfile(): void&lt;/div&gt;&lt;div&gt;+createPersonalisedRoute(): Route&lt;/div&gt;&lt;div&gt;&lt;br&gt;&lt;/div&gt;" style="text;html=1;strokeColor=none;fillColor=none;align=left;verticalAlign=middle;spacingLeft=4;spacingRight=4;overflow=hidden;rotatable=0;points=[[0,0.5],[1,0.5]];portConstraint=eastwest;whiteSpace=wrap;" vertex="1" parent="3QtL0Roowi1bdVcyiD9X-15">
          <mxGeometry y="63" width="207" height="84" as="geometry" />
        </mxCell>
        <mxCell id="3QtL0Roowi1bdVcyiD9X-31" value="&amp;lt;&amp;lt;Boundary&amp;gt;&amp;gt;&lt;br&gt;&lt;b&gt;PersonalisationOptionGUI&lt;/b&gt;&lt;div&gt;&lt;br/&gt;&lt;/div&gt;" style="swimlane;fontStyle=0;align=center;verticalAlign=top;childLayout=stackLayout;horizontal=1;startSize=55;horizontalStack=0;resizeParent=1;resizeParentMax=0;resizeLast=0;collapsible=0;marginBottom=0;html=1;whiteSpace=wrap;" vertex="1" parent="WIyWlLk6GJQsqaUBKTNV-1">
          <mxGeometry x="134.5" y="96" width="231" height="258" as="geometry" />
        </mxCell>
        <mxCell id="3QtL0Roowi1bdVcyiD9X-33" value="-txtPersonalisationPrompt: TextBox&lt;div&gt;-btnYes: Button&lt;/div&gt;&lt;div&gt;-btnNo: Button&lt;/div&gt;" style="text;html=1;strokeColor=none;fillColor=none;align=left;verticalAlign=middle;spacingLeft=4;spacingRight=4;overflow=hidden;rotatable=0;points=[[0,0.5],[1,0.5]];portConstraint=eastwest;whiteSpace=wrap;" vertex="1" parent="3QtL0Roowi1bdVcyiD9X-31">
          <mxGeometry y="55" width="231" height="112" as="geometry" />
        </mxCell>
        <mxCell id="3QtL0Roowi1bdVcyiD9X-36" value="" style="line;strokeWidth=1;fillColor=none;align=left;verticalAlign=middle;spacingTop=-1;spacingLeft=3;spacingRight=3;rotatable=0;labelPosition=right;points=[];portConstraint=eastwest;" vertex="1" parent="3QtL0Roowi1bdVcyiD9X-31">
          <mxGeometry y="167" width="231" height="8" as="geometry" />
        </mxCell>
        <mxCell id="3QtL0Roowi1bdVcyiD9X-38" value="&lt;div&gt;&lt;span style=&quot;background-color: transparent; color: light-dark(rgb(0, 0, 0), rgb(255, 255, 255));&quot;&gt;+personalisationOptionsGUI(): void&lt;/span&gt;&lt;/div&gt;&lt;div&gt;&lt;span style=&quot;background-color: transparent; color: light-dark(rgb(0, 0, 0), rgb(255, 255, 255));&quot;&gt;+yesPress(): void&lt;/span&gt;&lt;/div&gt;&lt;div&gt;+noPress(): void&lt;/div&gt;" style="text;html=1;strokeColor=none;fillColor=none;align=left;verticalAlign=middle;spacingLeft=4;spacingRight=4;overflow=hidden;rotatable=0;points=[[0,0.5],[1,0.5]];portConstraint=eastwest;whiteSpace=wrap;" vertex="1" parent="3QtL0Roowi1bdVcyiD9X-31">
          <mxGeometry y="175" width="231" height="83" as="geometry" />
        </mxCell>
        <mxCell id="3QtL0Roowi1bdVcyiD9X-39" value="" style="endArrow=none;html=1;edgeStyle=orthogonalEdgeStyle;rounded=0;entryX=0.5;entryY=0;entryDx=0;entryDy=0;" edge="1" parent="WIyWlLk6GJQsqaUBKTNV-1" target="3QtL0Roowi1bdVcyiD9X-15">
          <mxGeometry relative="1" as="geometry">
            <mxPoint x="250" y="94" as="sourcePoint" />
            <mxPoint x="1023" y="515" as="targetPoint" />
            <Array as="points">
              <mxPoint x="250" y="35" />
              <mxPoint x="1217" y="35" />
            </Array>
          </mxGeometry>
        </mxCell>
        <mxCell id="3QtL0Roowi1bdVcyiD9X-40" value="1" style="edgeLabel;resizable=0;html=1;align=left;verticalAlign=bottom;" connectable="0" vertex="1" parent="3QtL0Roowi1bdVcyiD9X-39">
          <mxGeometry x="-1" relative="1" as="geometry" />
        </mxCell>
        <mxCell id="3QtL0Roowi1bdVcyiD9X-41" value="1" style="edgeLabel;resizable=0;html=1;align=right;verticalAlign=bottom;" connectable="0" vertex="1" parent="3QtL0Roowi1bdVcyiD9X-39">
          <mxGeometry x="1" relative="1" as="geometry">
            <mxPoint x="-7" y="-3" as="offset" />
          </mxGeometry>
        </mxCell>
        <mxCell id="3QtL0Roowi1bdVcyiD9X-42" value="Profile and Exhibit Personalisation" style="shape=umlFrame;whiteSpace=wrap;html=1;pointerEvents=0;recursiveResize=0;container=1;collapsible=0;width=160;" vertex="1" parent="WIyWlLk6GJQsqaUBKTNV-1">
          <mxGeometry x="43" y="16" width="1405" height="1000" as="geometry" />
        </mxCell>
        <mxCell id="3QtL0Roowi1bdVcyiD9X-23" value="&amp;lt;&amp;lt;Boundary&amp;gt;&amp;gt;&lt;br&gt;&lt;b&gt;ProfileGUI&lt;/b&gt;" style="swimlane;fontStyle=0;align=center;verticalAlign=top;childLayout=stackLayout;horizontal=1;startSize=55;horizontalStack=0;resizeParent=1;resizeParentMax=0;resizeLast=0;collapsible=0;marginBottom=0;html=1;whiteSpace=wrap;" vertex="1" parent="3QtL0Roowi1bdVcyiD9X-42">
          <mxGeometry x="111" y="480" width="248" height="379" as="geometry" />
        </mxCell>
        <mxCell id="3QtL0Roowi1bdVcyiD9X-25" value="-userImage: Image&lt;div&gt;-username: String&lt;/div&gt;&lt;div&gt;-arrowIcon: Image&lt;/div&gt;&lt;div&gt;-favouriteIcon: Image&lt;/div&gt;&lt;div&gt;-rateIcon: Image&lt;/div&gt;&lt;div&gt;-languageIcon: Image&lt;/div&gt;&lt;div&gt;-museumIcon: Image&lt;/div&gt;&lt;div&gt;-dowmloadIcon: Image&lt;/div&gt;&lt;div&gt;-offlineIcon: Image&lt;/div&gt;&lt;div&gt;&lt;br&gt;&lt;/div&gt;" style="text;html=1;strokeColor=none;fillColor=none;align=left;verticalAlign=middle;spacingLeft=4;spacingRight=4;overflow=hidden;rotatable=0;points=[[0,0.5],[1,0.5]];portConstraint=eastwest;whiteSpace=wrap;" vertex="1" parent="3QtL0Roowi1bdVcyiD9X-23">
          <mxGeometry y="55" width="248" height="177" as="geometry" />
        </mxCell>
        <mxCell id="3QtL0Roowi1bdVcyiD9X-28" value="" style="line;strokeWidth=1;fillColor=none;align=left;verticalAlign=middle;spacingTop=-1;spacingLeft=3;spacingRight=3;rotatable=0;labelPosition=right;points=[];portConstraint=eastwest;" vertex="1" parent="3QtL0Roowi1bdVcyiD9X-23">
          <mxGeometry y="232" width="248" height="8" as="geometry" />
        </mxCell>
        <mxCell id="3QtL0Roowi1bdVcyiD9X-30" value="+favouritesPress():void&lt;div&gt;+ratingsPress():void&lt;/div&gt;&lt;div&gt;+downloadedPress():void&lt;/div&gt;&lt;div&gt;+offlinePress():void&lt;/div&gt;&lt;div&gt;+languagePress():void&lt;/div&gt;&lt;div&gt;+preferencesPress():void&lt;/div&gt;&lt;div&gt;&lt;br&gt;&lt;/div&gt;" style="text;html=1;strokeColor=none;fillColor=none;align=left;verticalAlign=middle;spacingLeft=4;spacingRight=4;overflow=hidden;rotatable=0;points=[[0,0.5],[1,0.5]];portConstraint=eastwest;whiteSpace=wrap;" vertex="1" parent="3QtL0Roowi1bdVcyiD9X-23">
          <mxGeometry y="240" width="248" height="139" as="geometry" />
        </mxCell>
        <mxCell id="3QtL0Roowi1bdVcyiD9X-49" value="&lt;div&gt;&lt;span style=&quot;font-weight: normal;&quot;&gt;&amp;lt;&amp;lt;entity&amp;gt;&amp;gt;&lt;/span&gt;&lt;/div&gt;Route" style="swimlane;fontStyle=1;align=center;verticalAlign=top;childLayout=stackLayout;horizontal=1;startSize=40;horizontalStack=0;resizeParent=1;resizeParentMax=0;resizeLast=0;collapsible=1;marginBottom=0;whiteSpace=wrap;html=1;" vertex="1" parent="3QtL0Roowi1bdVcyiD9X-42">
          <mxGeometry x="540" y="233" width="330" height="280" as="geometry" />
        </mxCell>
        <mxCell id="3QtL0Roowi1bdVcyiD9X-50" value="+ path: List[Coordinates]" style="text;strokeColor=none;fillColor=none;align=left;verticalAlign=top;spacingLeft=4;spacingRight=4;overflow=hidden;rotatable=0;points=[[0,0.5],[1,0.5]];portConstraint=eastwest;whiteSpace=wrap;html=1;" vertex="1" parent="3QtL0Roowi1bdVcyiD9X-49">
          <mxGeometry y="40" width="330" height="26" as="geometry" />
        </mxCell>
        <mxCell id="3QtL0Roowi1bdVcyiD9X-51" value="+ estimatedTime: float" style="text;strokeColor=none;fillColor=none;align=left;verticalAlign=top;spacingLeft=4;spacingRight=4;overflow=hidden;rotatable=0;points=[[0,0.5],[1,0.5]];portConstraint=eastwest;whiteSpace=wrap;html=1;" vertex="1" parent="3QtL0Roowi1bdVcyiD9X-49">
          <mxGeometry y="66" width="330" height="26" as="geometry" />
        </mxCell>
        <mxCell id="3QtL0Roowi1bdVcyiD9X-52" value="" style="line;strokeWidth=1;fillColor=none;align=left;verticalAlign=middle;spacingTop=-1;spacingLeft=3;spacingRight=3;rotatable=0;labelPosition=right;points=[];portConstraint=eastwest;strokeColor=inherit;" vertex="1" parent="3QtL0Roowi1bdVcyiD9X-49">
          <mxGeometry y="92" width="330" height="8" as="geometry" />
        </mxCell>
        <mxCell id="3QtL0Roowi1bdVcyiD9X-53" value="+ Route(estimatedTime: float, path: List&amp;lt;Coordinates&amp;gt;): void" style="text;strokeColor=none;fillColor=none;align=left;verticalAlign=top;spacingLeft=4;spacingRight=4;overflow=hidden;rotatable=0;points=[[0,0.5],[1,0.5]];portConstraint=eastwest;whiteSpace=wrap;html=1;" vertex="1" parent="3QtL0Roowi1bdVcyiD9X-49">
          <mxGeometry y="100" width="330" height="30" as="geometry" />
        </mxCell>
        <mxCell id="3QtL0Roowi1bdVcyiD9X-54" value="+ getPath(): List&amp;lt;Coordinates&amp;gt;" style="text;strokeColor=none;fillColor=none;align=left;verticalAlign=top;spacingLeft=4;spacingRight=4;overflow=hidden;rotatable=0;points=[[0,0.5],[1,0.5]];portConstraint=eastwest;whiteSpace=wrap;html=1;" vertex="1" parent="3QtL0Roowi1bdVcyiD9X-49">
          <mxGeometry y="130" width="330" height="30" as="geometry" />
        </mxCell>
        <mxCell id="3QtL0Roowi1bdVcyiD9X-55" value="+ getEstimatedTime(): float" style="text;strokeColor=none;fillColor=none;align=left;verticalAlign=top;spacingLeft=4;spacingRight=4;overflow=hidden;rotatable=0;points=[[0,0.5],[1,0.5]];portConstraint=eastwest;whiteSpace=wrap;html=1;" vertex="1" parent="3QtL0Roowi1bdVcyiD9X-49">
          <mxGeometry y="160" width="330" height="30" as="geometry" />
        </mxCell>
        <mxCell id="3QtL0Roowi1bdVcyiD9X-56" value="+ setPath(path: List&amp;lt;Coordinates&amp;gt;): void" style="text;strokeColor=none;fillColor=none;align=left;verticalAlign=top;spacingLeft=4;spacingRight=4;overflow=hidden;rotatable=0;points=[[0,0.5],[1,0.5]];portConstraint=eastwest;whiteSpace=wrap;html=1;" vertex="1" parent="3QtL0Roowi1bdVcyiD9X-49">
          <mxGeometry y="190" width="330" height="30" as="geometry" />
        </mxCell>
        <mxCell id="3QtL0Roowi1bdVcyiD9X-57" value="+ setEstimatedTime(estimatedTime: float): void" style="text;strokeColor=none;fillColor=none;align=left;verticalAlign=top;spacingLeft=4;spacingRight=4;overflow=hidden;rotatable=0;points=[[0,0.5],[1,0.5]];portConstraint=eastwest;whiteSpace=wrap;html=1;" vertex="1" parent="3QtL0Roowi1bdVcyiD9X-49">
          <mxGeometry y="220" width="330" height="30" as="geometry" />
        </mxCell>
        <mxCell id="3QtL0Roowi1bdVcyiD9X-59" value="+ personalisedRoute(): boolean" style="text;strokeColor=none;fillColor=none;align=left;verticalAlign=top;spacingLeft=4;spacingRight=4;overflow=hidden;rotatable=0;points=[[0,0.5],[1,0.5]];portConstraint=eastwest;whiteSpace=wrap;html=1;" vertex="1" parent="3QtL0Roowi1bdVcyiD9X-49">
          <mxGeometry y="250" width="330" height="30" as="geometry" />
        </mxCell>
        <mxCell id="4XlQt87d464CBhAci1XD-4" value="&amp;lt;&amp;lt;Boundary&amp;gt;&amp;gt;&lt;br&gt;&lt;b&gt;QuestionnaireGUI&lt;/b&gt;" style="swimlane;fontStyle=0;align=center;verticalAlign=top;childLayout=stackLayout;horizontal=1;startSize=55;horizontalStack=0;resizeParent=1;resizeParentMax=0;resizeLast=0;collapsible=0;marginBottom=0;html=1;whiteSpace=wrap;" parent="3QtL0Roowi1bdVcyiD9X-42" vertex="1">
          <mxGeometry x="870" y="639" width="255" height="243" as="geometry" />
        </mxCell>
        <mxCell id="4XlQt87d464CBhAci1XD-5" value="-textQuestion: TextBox&lt;div&gt;-options: List&amp;lt;string&amp;gt;&lt;/div&gt;&lt;div&gt;-selectedOptions: List&amp;lt;string&amp;gt;&lt;/div&gt;&lt;div&gt;-btnNext: Button&lt;/div&gt;&lt;div&gt;-btnGetStared: Button&lt;/div&gt;" style="text;html=1;strokeColor=none;fillColor=none;align=left;verticalAlign=middle;spacingLeft=4;spacingRight=4;overflow=hidden;rotatable=0;points=[[0,0.5],[1,0.5]];portConstraint=eastwest;whiteSpace=wrap;" parent="4XlQt87d464CBhAci1XD-4" vertex="1">
          <mxGeometry y="55" width="255" height="92" as="geometry" />
        </mxCell>
        <mxCell id="4XlQt87d464CBhAci1XD-6" value="" style="line;strokeWidth=1;fillColor=none;align=left;verticalAlign=middle;spacingTop=-1;spacingLeft=3;spacingRight=3;rotatable=0;labelPosition=right;points=[];portConstraint=eastwest;" parent="4XlQt87d464CBhAci1XD-4" vertex="1">
          <mxGeometry y="147" width="255" height="8" as="geometry" />
        </mxCell>
        <mxCell id="4XlQt87d464CBhAci1XD-7" value="&lt;div&gt;&lt;div&gt;+handleOptionSelection(): void&lt;br&gt;&lt;div&gt;+nextPress():void&lt;/div&gt;&lt;div&gt;+getStaredPress(): void&lt;/div&gt;&lt;div&gt;&lt;div&gt;&lt;br&gt;&lt;/div&gt;&lt;/div&gt;&lt;/div&gt;&lt;/div&gt;" style="text;html=1;strokeColor=none;fillColor=none;align=left;verticalAlign=middle;spacingLeft=4;spacingRight=4;overflow=hidden;rotatable=0;points=[[0,0.5],[1,0.5]];portConstraint=eastwest;whiteSpace=wrap;" parent="4XlQt87d464CBhAci1XD-4" vertex="1">
          <mxGeometry y="155" width="255" height="88" as="geometry" />
        </mxCell>
        <mxCell id="3QtL0Roowi1bdVcyiD9X-43" value="" style="endArrow=none;html=1;edgeStyle=orthogonalEdgeStyle;rounded=0;entryX=0.503;entryY=1.022;entryDx=0;entryDy=0;entryPerimeter=0;exitX=1;exitY=0.5;exitDx=0;exitDy=0;" edge="1" parent="WIyWlLk6GJQsqaUBKTNV-1" source="3QtL0Roowi1bdVcyiD9X-56" target="3QtL0Roowi1bdVcyiD9X-22">
          <mxGeometry relative="1" as="geometry">
            <mxPoint x="945" y="591" as="sourcePoint" />
            <mxPoint x="1053" y="518" as="targetPoint" />
            <Array as="points">
              <mxPoint x="1029" y="454" />
              <mxPoint x="1029" y="345" />
              <mxPoint x="1217" y="345" />
            </Array>
          </mxGeometry>
        </mxCell>
        <mxCell id="3QtL0Roowi1bdVcyiD9X-44" value="1" style="edgeLabel;resizable=0;html=1;align=left;verticalAlign=bottom;" connectable="0" vertex="1" parent="3QtL0Roowi1bdVcyiD9X-43">
          <mxGeometry x="-1" relative="1" as="geometry" />
        </mxCell>
        <mxCell id="3QtL0Roowi1bdVcyiD9X-45" value="1" style="edgeLabel;resizable=0;html=1;align=right;verticalAlign=bottom;" connectable="0" vertex="1" parent="3QtL0Roowi1bdVcyiD9X-43">
          <mxGeometry x="1" relative="1" as="geometry">
            <mxPoint x="32" y="22" as="offset" />
          </mxGeometry>
        </mxCell>
        <mxCell id="3QtL0Roowi1bdVcyiD9X-46" value="" style="endArrow=none;html=1;edgeStyle=orthogonalEdgeStyle;rounded=0;exitX=1.019;exitY=0.295;exitDx=0;exitDy=0;exitPerimeter=0;" edge="1" parent="WIyWlLk6GJQsqaUBKTNV-1" source="3QtL0Roowi1bdVcyiD9X-22" target="3QtL0Roowi1bdVcyiD9X-30">
          <mxGeometry relative="1" as="geometry">
            <mxPoint x="893" y="518" as="sourcePoint" />
            <mxPoint x="1053" y="518" as="targetPoint" />
            <Array as="points">
              <mxPoint x="1417" y="215" />
              <mxPoint x="1417" y="626" />
              <mxPoint x="449" y="626" />
              <mxPoint x="449" y="806" />
            </Array>
          </mxGeometry>
        </mxCell>
        <mxCell id="3QtL0Roowi1bdVcyiD9X-47" value="1" style="edgeLabel;resizable=0;html=1;align=left;verticalAlign=bottom;" connectable="0" vertex="1" parent="3QtL0Roowi1bdVcyiD9X-46">
          <mxGeometry x="-1" relative="1" as="geometry" />
        </mxCell>
        <mxCell id="3QtL0Roowi1bdVcyiD9X-48" value="1" style="edgeLabel;resizable=0;html=1;align=right;verticalAlign=bottom;" connectable="0" vertex="1" parent="3QtL0Roowi1bdVcyiD9X-46">
          <mxGeometry x="1" relative="1" as="geometry">
            <mxPoint x="13" y="22" as="offset" />
          </mxGeometry>
        </mxCell>
        <mxCell id="3QtL0Roowi1bdVcyiD9X-60" value="" style="endArrow=none;html=1;edgeStyle=orthogonalEdgeStyle;rounded=0;entryX=0.901;entryY=1.075;entryDx=0;entryDy=0;entryPerimeter=0;exitX=1.025;exitY=-0.006;exitDx=0;exitDy=0;exitPerimeter=0;" edge="1" parent="WIyWlLk6GJQsqaUBKTNV-1" source="4XlQt87d464CBhAci1XD-7" target="3QtL0Roowi1bdVcyiD9X-22">
          <mxGeometry relative="1" as="geometry">
            <mxPoint x="893" y="479" as="sourcePoint" />
            <mxPoint x="1053" y="479" as="targetPoint" />
            <Array as="points">
              <mxPoint x="1238" y="810" />
              <mxPoint x="1238" y="538" />
              <mxPoint x="1300" y="538" />
            </Array>
          </mxGeometry>
        </mxCell>
        <mxCell id="3QtL0Roowi1bdVcyiD9X-61" value="1&lt;div&gt;&lt;br&gt;&lt;/div&gt;" style="edgeLabel;resizable=0;html=1;align=left;verticalAlign=bottom;" connectable="0" vertex="1" parent="3QtL0Roowi1bdVcyiD9X-60">
          <mxGeometry x="-1" relative="1" as="geometry" />
        </mxCell>
        <mxCell id="3QtL0Roowi1bdVcyiD9X-62" value="1&lt;div&gt;&lt;br&gt;&lt;/div&gt;" style="edgeLabel;resizable=0;html=1;align=right;verticalAlign=bottom;" connectable="0" vertex="1" parent="3QtL0Roowi1bdVcyiD9X-60">
          <mxGeometry x="1" relative="1" as="geometry">
            <mxPoint x="15" y="25" as="offset" />
          </mxGeometry>
        </mxCell>
      </root>
    </mxGraphModel>
  </diagram>
</mxfile>
